<svg version="1.1" id="Layer_1" xmlns="http://www.w3.org/2000/svg" xmlns:xlink="http://www.w3.org/1999/xlink" x="0px" y="0px"
	 width="100%" viewBox="0 0 499 506" enable-background="new 0 0 499 506" xml:space="preserve">
<path fill="#000000" opacity="0.000000" stroke="none" 
	d="
M500.000000,3.000000 
	C500.000000,170.927231 500.000000,338.854462 500.000000,507.000000 
	C334.311401,507.000000 168.622681,507.000000 2.484941,506.531616 
	C2.038451,340.484497 2.041204,174.905701 2.041710,9.326921 
	C2.041719,6.551280 2.014509,3.775640 2.000000,1.000000 
	C8.355437,1.000000 14.710874,1.000000 21.158819,1.368571 
	C23.200430,2.165113 25.149391,2.967067 27.098654,2.967800 
	C181.383179,3.025780 335.667725,3.021765 489.952271,3.011664 
	C491.611053,3.011555 493.272766,2.897203 494.920349,2.718424 
	C495.008026,2.708911 494.976196,1.598119 495.000000,1.000000 
	C495.444458,1.000000 495.888885,1.000000 496.273315,1.287735 
	C497.151215,1.999660 498.089172,2.423851 499.266602,2.909768 
	C499.506134,2.971493 500.000000,3.000000 500.000000,3.000000 
M347.499512,263.691956 
	C316.415924,263.691956 285.332367,263.691956 254.300690,263.691956 
	C254.300690,332.954010 254.300690,401.319305 254.300690,469.542969 
	C325.949646,469.542969 397.299744,469.542969 468.548950,469.542969 
	C468.548950,400.589874 468.548950,332.012970 468.548950,263.686737 
	C428.371796,263.686737 388.435547,263.686737 347.499512,263.691956 
M34.455402,255.327576 
	C34.455402,257.414062 34.455402,259.500580 34.455402,261.351227 
	C70.226540,261.351227 105.290680,261.351227 140.690323,261.351227 
	C140.690323,259.181274 140.690323,257.373047 140.690323,255.564835 
	C140.690323,224.416016 140.684860,193.267197 140.695419,162.118378 
	C140.697311,156.536972 142.180573,155.074478 147.753204,155.055511 
	C180.567535,154.943787 213.381851,154.836548 246.196182,154.728989 
	C247.933487,154.723297 249.670837,154.728256 251.411377,154.728256 
	C251.411377,120.465912 251.411377,87.055923 251.411377,53.675583 
	C178.991119,53.675583 106.818535,53.675583 34.455433,53.675583 
	C34.455433,120.801903 34.455433,187.583694 34.455402,255.327576 
M145.412338,218.499756 
	C145.412338,267.450226 145.412338,316.400726 145.412338,365.469055 
	C180.214386,365.469055 214.564423,365.469055 249.103790,365.469055 
	C249.103790,332.453491 249.103073,299.800171 249.104385,267.146851 
	C249.104645,260.661438 250.588196,259.134247 256.926392,259.114929 
	C289.418549,259.015961 321.910736,258.920898 354.402893,258.825531 
	C356.181671,258.820312 357.960449,258.824860 359.751648,258.824860 
	C359.751648,225.227402 359.751648,192.188004 359.751648,159.794250 
	C288.186218,159.794250 216.959839,159.794250 145.412369,159.794250 
	C145.412369,179.559570 145.412369,198.529663 145.412338,218.499756 
z"/>
<path fill="#FEFEFE" opacity="1.000000" stroke="black" 
	d="
M347.999420,263.689331 
	C388.435547,263.686737 428.371796,263.686737 468.548950,263.686737 
	C468.548950,332.012970 468.548950,400.589874 468.548950,469.542969 
	C397.299744,469.542969 325.949646,469.542969 254.300690,469.542969 
	C254.300690,401.319305 254.300690,332.954010 254.300690,263.691956 
	C285.332367,263.691956 316.415924,263.691956 347.999420,263.689331 
z"/>
<path fill="#FDFDFD" opacity="1.000000" stroke="black" 
	d="
M34.455418,254.846527 
	C34.455433,187.583694 34.455433,120.801903 34.455433,53.675583 
	C106.818535,53.675583 178.991119,53.675583 251.411377,53.675583 
	C251.411377,87.055923 251.411377,120.465912 251.411377,154.728256 
	C249.670837,154.728256 247.933487,154.723297 246.196182,154.728989 
	C213.381851,154.836548 180.567535,154.943787 147.753204,155.055511 
	C142.180573,155.074478 140.697311,156.536972 140.695419,162.118378 
	C140.684860,193.267197 140.690323,224.416016 140.690323,255.564835 
	C140.690323,257.373047 140.690323,259.181274 140.690323,261.351227 
	C105.290680,261.351227 70.226540,261.351227 34.455402,261.351227 
	C34.455402,259.500580 34.455402,257.414062 34.455418,254.846527 
z"/>
<path fill="#FEFEFE" opacity="1.000000" stroke="black" 
	d="
M145.412354,217.999756 
	C145.412369,198.529663 145.412369,179.559570 145.412369,159.794250 
	C216.959839,159.794250 288.186218,159.794250 359.751648,159.794250 
	C359.751648,192.188004 359.751648,225.227402 359.751648,258.824860 
	C357.960449,258.824860 356.181671,258.820312 354.402893,258.825531 
	C321.910736,258.920898 289.418549,259.015961 256.926392,259.114929 
	C250.588196,259.134247 249.104645,260.661438 249.104385,267.146851 
	C249.103073,299.800171 249.103790,332.453491 249.103790,365.469055 
	C214.564423,365.469055 180.214386,365.469055 145.412338,365.469055 
	C145.412338,316.400726 145.412338,267.450226 145.412354,217.999756 
z"/>
</svg>