<svg id="visual" viewBox="0 0 960 540" width="960" height="540" xmlns="http://www.w3.org/2000/svg" xmlns:xlink="http://www.w3.org/1999/xlink" version="1.1"><g stroke-width="1" stroke-linejoin="bevel"><path d="M516.3 287L431.7 293L431.7 315Z" fill="#69481b" stroke="#69481b"></path><path d="M431.7 315L512.3 401L516.3 287Z" fill="#121212" stroke="#121212"></path><path d="M516.3 287L469.7 189L431.7 293Z" fill="#b17618" stroke="#b17618"></path><path d="M516.3 287L484.3 181L469.7 189Z" fill="#98661a" stroke="#98661a"></path><path d="M512.3 401L605 358L516.3 287Z" fill="#80571b" stroke="#80571b"></path><path d="M516.3 287L621 232L484.3 181Z" fill="#69481b" stroke="#69481b"></path><path d="M431.7 315L455.7 446L512.3 401Z" fill="#e4960d" stroke="#e4960d"></path><path d="M512.3 401L626 431L605 358Z" fill="#b17618" stroke="#b17618"></path><path d="M455.7 446L505.3 448L512.3 401Z" fill="#121212" stroke="#121212"></path><path d="M605 358L621 232L516.3 287Z" fill="#3c2c18" stroke="#3c2c18"></path><path d="M484.3 92L441.7 135L484.3 181Z" fill="#ca8514" stroke="#ca8514"></path><path d="M484.3 181L441.7 135L469.7 189Z" fill="#80571b" stroke="#80571b"></path><path d="M469.7 189L294 227L431.7 293Z" fill="#69481b" stroke="#69481b"></path><path d="M441.7 135L294 227L469.7 189Z" fill="#523a1a" stroke="#523a1a"></path><path d="M431.7 293L294 227L431.7 315Z" fill="#98661a" stroke="#98661a"></path><path d="M431.7 315L288 381L455.7 446Z" fill="#b17618" stroke="#b17618"></path><path d="M505.3 448L626 431L512.3 401Z" fill="#e4960d" stroke="#e4960d"></path><path d="M605 358L741.7 311L621 232Z" fill="#e4960d" stroke="#e4960d"></path><path d="M294 227L288 381L431.7 315Z" fill="#80571b" stroke="#80571b"></path><path d="M638 162L484.3 92L484.3 181Z" fill="#3c2c18" stroke="#3c2c18"></path><path d="M441.7 135L309 145L294 227Z" fill="#121212" stroke="#121212"></path><path d="M741.7 267L638 162L621 232Z" fill="#69481b" stroke="#69481b"></path><path d="M621 232L638 162L484.3 181Z" fill="#98661a" stroke="#98661a"></path><path d="M279 106L309 145L346 0Z" fill="#271f16" stroke="#271f16"></path><path d="M455.7 446L538.3 540L505.3 448Z" fill="#271f16" stroke="#271f16"></path><path d="M505.3 448L538.3 540L626 431Z" fill="#b17618" stroke="#b17618"></path><path d="M377.7 540L538.3 540L455.7 446Z" fill="#69481b" stroke="#69481b"></path><path d="M729.7 132L648 124L638 162Z" fill="#ca8514" stroke="#ca8514"></path><path d="M638 162L648 124L484.3 92Z" fill="#b17618" stroke="#b17618"></path><path d="M363 540L377.7 540L455.7 446Z" fill="#121212" stroke="#121212"></path><path d="M291 495L363 540L455.7 446Z" fill="#121212" stroke="#121212"></path><path d="M288 381L291 495L455.7 446Z" fill="#ca8514" stroke="#ca8514"></path><path d="M740.7 471L741.7 311L626 431Z" fill="#3c2c18" stroke="#3c2c18"></path><path d="M626 431L741.7 311L605 358Z" fill="#ca8514" stroke="#ca8514"></path><path d="M741.7 311L741.7 267L621 232Z" fill="#121212" stroke="#121212"></path><path d="M309 145L223.3 205L294 227Z" fill="#e4960d" stroke="#e4960d"></path><path d="M294 227L181.3 283L288 381Z" fill="#3c2c18" stroke="#3c2c18"></path><path d="M288 381L214.3 422L291 495Z" fill="#e4960d" stroke="#e4960d"></path><path d="M346 0L309 145L441.7 135Z" fill="#80571b" stroke="#80571b"></path><path d="M309 145L279 106L223.3 205Z" fill="#121212" stroke="#121212"></path><path d="M185.3 359L214.3 422L288 381Z" fill="#80571b" stroke="#80571b"></path><path d="M538.3 540L638 540L626 431Z" fill="#271f16" stroke="#271f16"></path><path d="M223.3 205L181.3 283L294 227Z" fill="#523a1a" stroke="#523a1a"></path><path d="M181.3 283L185.3 359L288 381Z" fill="#80571b" stroke="#80571b"></path><path d="M576.3 0L452.7 0L484.3 92Z" fill="#80571b" stroke="#80571b"></path><path d="M484.3 92L452.7 0L441.7 135Z" fill="#121212" stroke="#121212"></path><path d="M741.7 267L729.7 132L638 162Z" fill="#523a1a" stroke="#523a1a"></path><path d="M648 124L576.3 0L484.3 92Z" fill="#ffa600" stroke="#ffa600"></path><path d="M638 540L740.7 471L626 431Z" fill="#121212" stroke="#121212"></path><path d="M678 0L576.3 0L648 124Z" fill="#ca8514" stroke="#ca8514"></path><path d="M452.7 0L346 0L441.7 135Z" fill="#3c2c18" stroke="#3c2c18"></path><path d="M225.3 0L228.3 82L279 106Z" fill="#121212" stroke="#121212"></path><path d="M279 106L228.3 82L223.3 205Z" fill="#271f16" stroke="#271f16"></path><path d="M87.7 193L74.7 287L181.3 283Z" fill="#ffa600" stroke="#ffa600"></path><path d="M741.7 267L766.7 138L729.7 132Z" fill="#ffa600" stroke="#ffa600"></path><path d="M729.7 132L678 0L648 124Z" fill="#69481b" stroke="#69481b"></path><path d="M841.3 170L766.7 138L741.7 267Z" fill="#98661a" stroke="#98661a"></path><path d="M863.3 272L741.7 267L741.7 311Z" fill="#98661a" stroke="#98661a"></path><path d="M61.7 351L145.7 450L185.3 359Z" fill="#121212" stroke="#121212"></path><path d="M185.3 359L145.7 450L214.3 422Z" fill="#271f16" stroke="#271f16"></path><path d="M214.3 422L167.3 540L291 495Z" fill="#ffa600" stroke="#ffa600"></path><path d="M291 495L167.3 540L363 540Z" fill="#b17618" stroke="#b17618"></path><path d="M762.7 0L678 0L729.7 132Z" fill="#69481b" stroke="#69481b"></path><path d="M784.7 540L827.3 431L740.7 471Z" fill="#e4960d" stroke="#e4960d"></path><path d="M740.7 471L827.3 431L741.7 311Z" fill="#69481b" stroke="#69481b"></path><path d="M145.7 450L167.3 540L214.3 422Z" fill="#b17618" stroke="#b17618"></path><path d="M638 540L784.7 540L740.7 471Z" fill="#121212" stroke="#121212"></path><path d="M867.3 341L863.3 272L741.7 311Z" fill="#271f16" stroke="#271f16"></path><path d="M766.7 138L762.7 0L729.7 132Z" fill="#3c2c18" stroke="#3c2c18"></path><path d="M863.3 272L841.3 170L741.7 267Z" fill="#121212" stroke="#121212"></path><path d="M346 0L225.3 0L279 106Z" fill="#271f16" stroke="#271f16"></path><path d="M87.7 193L181.3 283L223.3 205Z" fill="#523a1a" stroke="#523a1a"></path><path d="M181.3 283L74.7 287L185.3 359Z" fill="#e4960d" stroke="#e4960d"></path><path d="M827.3 431L867.3 341L741.7 311Z" fill="#121212" stroke="#121212"></path><path d="M960 273L867.3 341L960 386Z" fill="#121212" stroke="#121212"></path><path d="M87.7 193L223.3 205L154.7 52Z" fill="#e4960d" stroke="#e4960d"></path><path d="M145.7 450L129.7 540L167.3 540Z" fill="#69481b" stroke="#69481b"></path><path d="M154.7 52L223.3 205L228.3 82Z" fill="#98661a" stroke="#98661a"></path><path d="M225.3 0L154.7 52L228.3 82Z" fill="#271f16" stroke="#271f16"></path><path d="M784.7 540L816.3 540L827.3 431Z" fill="#523a1a" stroke="#523a1a"></path><path d="M0 268L61.7 351L74.7 287Z" fill="#e4960d" stroke="#e4960d"></path><path d="M74.7 287L61.7 351L185.3 359Z" fill="#b17618" stroke="#b17618"></path><path d="M0 480L129.7 540L145.7 450Z" fill="#ffa600" stroke="#ffa600"></path><path d="M898.3 96L762.7 0L766.7 138Z" fill="#3c2c18" stroke="#3c2c18"></path><path d="M225.3 0L122.7 0L154.7 52Z" fill="#271f16" stroke="#271f16"></path><path d="M154.7 52L0 92L87.7 193Z" fill="#98661a" stroke="#98661a"></path><path d="M960 180L898.3 96L841.3 170Z" fill="#3c2c18" stroke="#3c2c18"></path><path d="M841.3 170L898.3 96L766.7 138Z" fill="#523a1a" stroke="#523a1a"></path><path d="M960 180L841.3 170L863.3 272Z" fill="#271f16" stroke="#271f16"></path><path d="M0 227L74.7 287L87.7 193Z" fill="#98661a" stroke="#98661a"></path><path d="M0 227L0 268L74.7 287Z" fill="#121212" stroke="#121212"></path><path d="M61.7 351L0 388L145.7 450Z" fill="#80571b" stroke="#80571b"></path><path d="M0 92L0 227L87.7 193Z" fill="#3c2c18" stroke="#3c2c18"></path><path d="M0 268L0 388L61.7 351Z" fill="#b17618" stroke="#b17618"></path><path d="M960 386L867.3 341L960 421Z" fill="#ca8514" stroke="#ca8514"></path><path d="M867.3 341L960 273L863.3 272Z" fill="#523a1a" stroke="#523a1a"></path><path d="M960 421L867.3 341L827.3 431Z" fill="#ffa600" stroke="#ffa600"></path><path d="M960 540L960 421L827.3 431Z" fill="#69481b" stroke="#69481b"></path><path d="M960 273L960 180L863.3 272Z" fill="#b17618" stroke="#b17618"></path><path d="M0 388L0 480L145.7 450Z" fill="#523a1a" stroke="#523a1a"></path><path d="M960 68L882.3 0L898.3 96Z" fill="#98661a" stroke="#98661a"></path><path d="M898.3 96L882.3 0L762.7 0Z" fill="#3c2c18" stroke="#3c2c18"></path><path d="M122.7 0L0 92L154.7 52Z" fill="#98661a" stroke="#98661a"></path><path d="M0 480L0 540L129.7 540Z" fill="#121212" stroke="#121212"></path><path d="M816.3 540L960 540L827.3 431Z" fill="#b17618" stroke="#b17618"></path><path d="M960 180L960 68L898.3 96Z" fill="#b17618" stroke="#b17618"></path><path d="M122.7 0L0 0L0 92Z" fill="#e4960d" stroke="#e4960d"></path><path d="M960 68L960 0L882.3 0Z" fill="#b17618" stroke="#b17618"></path></g></svg>