<svg id="visual" viewBox="0 0 900 600" width="900" height="600" xmlns="http://www.w3.org/2000/svg" xmlns:xlink="http://www.w3.org/1999/xlink" version="1.1"><path d="M0 183L10 189.3C20 195.7 40 208.3 60 206.5C80 204.7 100 188.3 120 192.3C140 196.3 160 220.7 180 233C200 245.3 220 245.7 240 232.3C260 219 280 192 300 186.7C320 181.3 340 197.7 360 197.7C380 197.7 400 181.3 420 186.2C440 191 460 217 480 221.2C500 225.3 520 207.7 540 193.7C560 179.7 580 169.3 600 178.3C620 187.3 640 215.7 660 220C680 224.3 700 204.7 720 197C740 189.3 760 193.7 780 190.8C800 188 820 178 840 177.5C860 177 880 186 890 190.5L900 195L900 0L890 0C880 0 860 0 840 0C820 0 800 0 780 0C760 0 740 0 720 0C700 0 680 0 660 0C640 0 620 0 600 0C580 0 560 0 540 0C520 0 500 0 480 0C460 0 440 0 420 0C400 0 380 0 360 0C340 0 320 0 300 0C280 0 260 0 240 0C220 0 200 0 180 0C160 0 140 0 120 0C100 0 80 0 60 0C40 0 20 0 10 0L0 0Z" fill="#fcaf3c"></path><path d="M0 147L10 145.2C20 143.3 40 139.7 60 141.5C80 143.3 100 150.7 120 153C140 155.3 160 152.7 180 150.5C200 148.3 220 146.7 240 150.2C260 153.7 280 162.3 300 167.8C320 173.3 340 175.7 360 173.7C380 171.7 400 165.3 420 163.7C440 162 460 165 480 162C500 159 520 150 540 157.3C560 164.7 580 188.3 600 189.5C620 190.7 640 169.3 660 164.3C680 159.3 700 170.7 720 175.2C740 179.7 760 177.3 780 169.5C800 161.7 820 148.3 840 152.2C860 156 880 177 890 187.5L900 198L900 0L890 0C880 0 860 0 840 0C820 0 800 0 780 0C760 0 740 0 720 0C700 0 680 0 660 0C640 0 620 0 600 0C580 0 560 0 540 0C520 0 500 0 480 0C460 0 440 0 420 0C400 0 380 0 360 0C340 0 320 0 300 0C280 0 260 0 240 0C220 0 200 0 180 0C160 0 140 0 120 0C100 0 80 0 60 0C40 0 20 0 10 0L0 0Z" fill="#fba634"></path><path d="M0 179L10 172.8C20 166.7 40 154.3 60 149.3C80 144.3 100 146.7 120 143C140 139.3 160 129.7 180 129.2C200 128.7 220 137.3 240 140.5C260 143.7 280 141.3 300 136.2C320 131 340 123 360 121C380 119 400 123 420 128.5C440 134 460 141 480 145.2C500 149.3 520 150.7 540 147.7C560 144.7 580 137.3 600 131.8C620 126.3 640 122.7 660 129.7C680 136.7 700 154.3 720 161.5C740 168.7 760 165.3 780 159.7C800 154 820 146 840 144.2C860 142.3 880 146.7 890 148.8L900 151L900 0L890 0C880 0 860 0 840 0C820 0 800 0 780 0C760 0 740 0 720 0C700 0 680 0 660 0C640 0 620 0 600 0C580 0 560 0 540 0C520 0 500 0 480 0C460 0 440 0 420 0C400 0 380 0 360 0C340 0 320 0 300 0C280 0 260 0 240 0C220 0 200 0 180 0C160 0 140 0 120 0C100 0 80 0 60 0C40 0 20 0 10 0L0 0Z" fill="#fb9d2c"></path><path d="M0 115L10 114.7C20 114.3 40 113.7 60 115.8C80 118 100 123 120 120.7C140 118.3 160 108.7 180 104.5C200 100.3 220 101.7 240 106C260 110.3 280 117.7 300 124.2C320 130.7 340 136.3 360 140.7C380 145 400 148 420 149.5C440 151 460 151 480 150.7C500 150.3 520 149.7 540 140C560 130.3 580 111.7 600 107.5C620 103.3 640 113.7 660 115C680 116.3 700 108.7 720 106.8C740 105 760 109 780 112.7C800 116.3 820 119.7 840 118.3C860 117 880 111 890 108L900 105L900 0L890 0C880 0 860 0 840 0C820 0 800 0 780 0C760 0 740 0 720 0C700 0 680 0 660 0C640 0 620 0 600 0C580 0 560 0 540 0C520 0 500 0 480 0C460 0 440 0 420 0C400 0 380 0 360 0C340 0 320 0 300 0C280 0 260 0 240 0C220 0 200 0 180 0C160 0 140 0 120 0C100 0 80 0 60 0C40 0 20 0 10 0L0 0Z" fill="#fa9424"></path><path d="M0 119L10 119C20 119 40 119 60 113.2C80 107.3 100 95.7 120 86.7C140 77.7 160 71.3 180 68.7C200 66 220 67 240 75.3C260 83.7 280 99.3 300 107.3C320 115.3 340 115.7 360 113.3C380 111 400 106 420 101.5C440 97 460 93 480 92.7C500 92.3 520 95.7 540 100C560 104.3 580 109.7 600 108.2C620 106.7 640 98.3 660 93C680 87.7 700 85.3 720 88.8C740 92.3 760 101.7 780 104C800 106.3 820 101.7 840 100.3C860 99 880 101 890 102L900 103L900 0L890 0C880 0 860 0 840 0C820 0 800 0 780 0C760 0 740 0 720 0C700 0 680 0 660 0C640 0 620 0 600 0C580 0 560 0 540 0C520 0 500 0 480 0C460 0 440 0 420 0C400 0 380 0 360 0C340 0 320 0 300 0C280 0 260 0 240 0C220 0 200 0 180 0C160 0 140 0 120 0C100 0 80 0 60 0C40 0 20 0 10 0L0 0Z" fill="#f98b1d"></path><path d="M0 54L10 52.2C20 50.3 40 46.7 60 45.2C80 43.7 100 44.3 120 46.5C140 48.7 160 52.3 180 53C200 53.7 220 51.3 240 53.7C260 56 280 63 300 67.8C320 72.7 340 75.3 360 75.5C380 75.7 400 73.3 420 72.8C440 72.3 460 73.7 480 68.7C500 63.7 520 52.3 540 48.5C560 44.7 580 48.3 600 53C620 57.7 640 63.3 660 64C680 64.7 700 60.3 720 56.3C740 52.3 760 48.7 780 53.3C800 58 820 71 840 73.8C860 76.7 880 69.3 890 65.7L900 62L900 0L890 0C880 0 860 0 840 0C820 0 800 0 780 0C760 0 740 0 720 0C700 0 680 0 660 0C640 0 620 0 600 0C580 0 560 0 540 0C520 0 500 0 480 0C460 0 440 0 420 0C400 0 380 0 360 0C340 0 320 0 300 0C280 0 260 0 240 0C220 0 200 0 180 0C160 0 140 0 120 0C100 0 80 0 60 0C40 0 20 0 10 0L0 0Z" fill="#f88116"></path><path d="M0 29L10 33.3C20 37.7 40 46.3 60 48.8C80 51.3 100 47.7 120 47C140 46.3 160 48.7 180 49C200 49.3 220 47.7 240 42.5C260 37.3 280 28.7 300 27.5C320 26.3 340 32.7 360 32.5C380 32.3 400 25.7 420 25.8C440 26 460 33 480 36.8C500 40.7 520 41.3 540 42.3C560 43.3 580 44.7 600 42.8C620 41 640 36 660 32.8C680 29.7 700 28.3 720 27.3C740 26.3 760 25.7 780 25.5C800 25.3 820 25.7 840 26.3C860 27 880 28 890 28.5L900 29L900 0L890 0C880 0 860 0 840 0C820 0 800 0 780 0C760 0 740 0 720 0C700 0 680 0 660 0C640 0 620 0 600 0C580 0 560 0 540 0C520 0 500 0 480 0C460 0 440 0 420 0C400 0 380 0 360 0C340 0 320 0 300 0C280 0 260 0 240 0C220 0 200 0 180 0C160 0 140 0 120 0C100 0 80 0 60 0C40 0 20 0 10 0L0 0Z" fill="#f7770f"></path></svg>