<svg id="visual" viewBox="0 0 675 900" width="675" height="900" xmlns="http://www.w3.org/2000/svg" xmlns:xlink="http://www.w3.org/1999/xlink" version="1.1"><path d="M0 531L18.8 488.7C37.7 446.3 75.3 361.7 112.8 318C150.3 274.3 187.7 271.7 225.2 307.8C262.7 344 300.3 419 337.8 416.5C375.3 414 412.7 334 450.2 335.5C487.7 337 525.3 420 562.8 442.5C600.3 465 637.7 427 656.3 408L675 389L675 0L656.3 0C637.7 0 600.3 0 562.8 0C525.3 0 487.7 0 450.2 0C412.7 0 375.3 0 337.8 0C300.3 0 262.7 0 225.2 0C187.7 0 150.3 0 112.8 0C75.3 0 37.7 0 18.8 0L0 0Z" fill="#ffb325" stroke-linecap="round" stroke-linejoin="miter"></path></svg>