<svg id="visual" viewBox="0 0 900 600" width="900" height="600" xmlns="http://www.w3.org/2000/svg" xmlns:xlink="http://www.w3.org/1999/xlink" version="1.1"><path d="M0 479L11.5 475C23 471 46 463 69 463.3C92 463.7 115 472.3 138.2 471.7C161.3 471 184.7 461 207.8 460.2C231 459.3 254 467.7 277 471.8C300 476 323 476 346 472.3C369 468.7 392 461.3 415.2 462.8C438.3 464.3 461.7 474.7 484.8 481.5C508 488.3 531 491.7 554 493.8C577 496 600 497 623 494.3C646 491.7 669 485.3 692.2 486.2C715.3 487 738.7 495 761.8 493.7C785 492.3 808 481.7 831 474.8C854 468 877 465 888.5 463.5L900 462L900 601L888.5 601C877 601 854 601 831 601C808 601 785 601 761.8 601C738.7 601 715.3 601 692.2 601C669 601 646 601 623 601C600 601 577 601 554 601C531 601 508 601 484.8 601C461.7 601 438.3 601 415.2 601C392 601 369 601 346 601C323 601 300 601 277 601C254 601 231 601 207.8 601C184.7 601 161.3 601 138.2 601C115 601 92 601 69 601C46 601 23 601 11.5 601L0 601Z" fill="#fea900"></path><path d="M0 506L11.5 506.8C23 507.7 46 509.3 69 504.2C92 499 115 487 138.2 480.3C161.3 473.7 184.7 472.3 207.8 473.5C231 474.7 254 478.3 277 479C300 479.7 323 477.3 346 480.2C369 483 392 491 415.2 495.8C438.3 500.7 461.7 502.3 484.8 503.2C508 504 531 504 554 499.5C577 495 600 486 623 481.3C646 476.7 669 476.3 692.2 480.5C715.3 484.7 738.7 493.3 761.8 499C785 504.7 808 507.3 831 502.5C854 497.7 877 485.3 888.5 479.2L900 473L900 601L888.5 601C877 601 854 601 831 601C808 601 785 601 761.8 601C738.7 601 715.3 601 692.2 601C669 601 646 601 623 601C600 601 577 601 554 601C531 601 508 601 484.8 601C461.7 601 438.3 601 415.2 601C392 601 369 601 346 601C323 601 300 601 277 601C254 601 231 601 207.8 601C184.7 601 161.3 601 138.2 601C115 601 92 601 69 601C46 601 23 601 11.5 601L0 601Z" fill="#d28d13"></path><path d="M0 525L11.5 522C23 519 46 513 69 511C92 509 115 511 138.2 510.7C161.3 510.3 184.7 507.7 207.8 508.3C231 509 254 513 277 515C300 517 323 517 346 517.2C369 517.3 392 517.7 415.2 513.5C438.3 509.3 461.7 500.7 484.8 496.7C508 492.7 531 493.3 554 499.8C577 506.3 600 518.7 623 524.7C646 530.7 669 530.3 692.2 529.3C715.3 528.3 738.7 526.7 761.8 523.5C785 520.3 808 515.7 831 512.3C854 509 877 507 888.5 506L900 505L900 601L888.5 601C877 601 854 601 831 601C808 601 785 601 761.8 601C738.7 601 715.3 601 692.2 601C669 601 646 601 623 601C600 601 577 601 554 601C531 601 508 601 484.8 601C461.7 601 438.3 601 415.2 601C392 601 369 601 346 601C323 601 300 601 277 601C254 601 231 601 207.8 601C184.7 601 161.3 601 138.2 601C115 601 92 601 69 601C46 601 23 601 11.5 601L0 601Z" fill="#a8721a"></path><path d="M0 517L11.5 521.7C23 526.3 46 535.7 69 537.8C92 540 115 535 138.2 530.8C161.3 526.7 184.7 523.3 207.8 522.5C231 521.7 254 523.3 277 523.8C300 524.3 323 523.7 346 520.8C369 518 392 513 415.2 512.7C438.3 512.3 461.7 516.7 484.8 520.7C508 524.7 531 528.3 554 528.3C577 528.3 600 524.7 623 525C646 525.3 669 529.7 692.2 528.3C715.3 527 738.7 520 761.8 516.7C785 513.3 808 513.7 831 518C854 522.3 877 530.7 888.5 534.8L900 539L900 601L888.5 601C877 601 854 601 831 601C808 601 785 601 761.8 601C738.7 601 715.3 601 692.2 601C669 601 646 601 623 601C600 601 577 601 554 601C531 601 508 601 484.8 601C461.7 601 438.3 601 415.2 601C392 601 369 601 346 601C323 601 300 601 277 601C254 601 231 601 207.8 601C184.7 601 161.3 601 138.2 601C115 601 92 601 69 601C46 601 23 601 11.5 601L0 601Z" fill="#80581c"></path><path d="M0 546L11.5 544.7C23 543.3 46 540.7 69 540.8C92 541 115 544 138.2 543C161.3 542 184.7 537 207.8 535.5C231 534 254 536 277 536.3C300 536.7 323 535.3 346 533.5C369 531.7 392 529.3 415.2 529.3C438.3 529.3 461.7 531.7 484.8 533C508 534.3 531 534.7 554 535.7C577 536.7 600 538.3 623 537.7C646 537 669 534 692.2 535.5C715.3 537 738.7 543 761.8 544.3C785 545.7 808 542.3 831 540C854 537.7 877 536.3 888.5 535.7L900 535L900 601L888.5 601C877 601 854 601 831 601C808 601 785 601 761.8 601C738.7 601 715.3 601 692.2 601C669 601 646 601 623 601C600 601 577 601 554 601C531 601 508 601 484.8 601C461.7 601 438.3 601 415.2 601C392 601 369 601 346 601C323 601 300 601 277 601C254 601 231 601 207.8 601C184.7 601 161.3 601 138.2 601C115 601 92 601 69 601C46 601 23 601 11.5 601L0 601Z" fill="#5a401b"></path><path d="M0 562L11.5 559.3C23 556.7 46 551.3 69 550.3C92 549.3 115 552.7 138.2 554.8C161.3 557 184.7 558 207.8 557.3C231 556.7 254 554.3 277 552.8C300 551.3 323 550.7 346 552.2C369 553.7 392 557.3 415.2 559.8C438.3 562.3 461.7 563.7 484.8 562.3C508 561 531 557 554 557.8C577 558.7 600 564.3 623 563.5C646 562.7 669 555.3 692.2 555.8C715.3 556.3 738.7 564.7 761.8 567C785 569.3 808 565.7 831 563.7C854 561.7 877 561.3 888.5 561.2L900 561L900 601L888.5 601C877 601 854 601 831 601C808 601 785 601 761.8 601C738.7 601 715.3 601 692.2 601C669 601 646 601 623 601C600 601 577 601 554 601C531 601 508 601 484.8 601C461.7 601 438.3 601 415.2 601C392 601 369 601 346 601C323 601 300 601 277 601C254 601 231 601 207.8 601C184.7 601 161.3 601 138.2 601C115 601 92 601 69 601C46 601 23 601 11.5 601L0 601Z" fill="#362918"></path><path d="M0 586L11.5 584.3C23 582.7 46 579.3 69 578.8C92 578.3 115 580.7 138.2 579.5C161.3 578.3 184.7 573.7 207.8 572C231 570.3 254 571.7 277 572.5C300 573.3 323 573.7 346 575.2C369 576.7 392 579.3 415.2 579.3C438.3 579.3 461.7 576.7 484.8 576C508 575.3 531 576.7 554 577.8C577 579 600 580 623 578.5C646 577 669 573 692.2 572.7C715.3 572.3 738.7 575.7 761.8 575.3C785 575 808 571 831 571.3C854 571.7 877 576.3 888.5 578.7L900 581L900 601L888.5 601C877 601 854 601 831 601C808 601 785 601 761.8 601C738.7 601 715.3 601 692.2 601C669 601 646 601 623 601C600 601 577 601 554 601C531 601 508 601 484.8 601C461.7 601 438.3 601 415.2 601C392 601 369 601 346 601C323 601 300 601 277 601C254 601 231 601 207.8 601C184.7 601 161.3 601 138.2 601C115 601 92 601 69 601C46 601 23 601 11.5 601L0 601Z" fill="#131313"></path></svg>